<?xml version="1.0" encoding="UTF-8" standalone="no"?>
<!DOCTYPE svg PUBLIC "-//W3C//DTD SVG 1.1//EN" "http://www.w3.org/Graphics/SVG/1.1/DTD/svg11.dtd">
<svg width="100%" height="100%" viewBox="0 0 1136 803" version="1.1" xmlns="http://www.w3.org/2000/svg" xmlns:xlink="http://www.w3.org/1999/xlink" xml:space="preserve" xmlns:serif="http://www.serif.com/" style="fill-rule:evenodd;clip-rule:evenodd;stroke-linejoin:round;stroke-miterlimit:1.41421;">
    <g transform="matrix(1,0,0,1,-389.736,-140.732)">
        <g transform="matrix(2.69193,0,0,2.69193,389.736,140.732)">
            <g transform="matrix(-0.954084,-0.29954,-0.29954,0.954084,99.2115,61.7766)">
                <path d="M-5.708,153.583L23.717,153.583L23.544,0.875L-5.882,0.874L-5.708,153.583Z" style="fill:rgb(0,104,41);"/>
            </g>
        </g>
        <g transform="matrix(2.69193,0,0,2.69193,389.736,140.732)">
            <g transform="matrix(-0.959174,-0.282818,-0.282818,0.959174,128.541,89.3647)">
                <path d="M-5.931,158.493L23.494,158.493L22.879,0.856L-6.546,0.856L-5.931,158.493Z" style="fill:rgb(0,137,56);"/>
            </g>
        </g>
        <g transform="matrix(2.69193,0,0,2.69193,389.736,140.732)">
            <g transform="matrix(-0.959164,-0.282849,-0.282849,0.959164,179.217,54.9563)">
                <path d="M-5.225,172.906L24.201,172.906L24.963,0.754L-4.463,0.753L-5.225,172.906Z" style="fill:rgb(0,183,76);"/>
            </g>
        </g>
        <g transform="matrix(2.69193,0,0,2.69193,389.736,140.732)">
            <g transform="matrix(-0.954093,-0.299509,-0.299509,0.954093,278.249,86.6585)">
                <path d="M-5.11,176.392L24.315,176.392L27.036,0.783L-2.389,0.784L-5.11,176.392Z" style="fill:rgb(0,137,56);"/>
            </g>
        </g>
        <g transform="matrix(2.69193,0,0,2.69193,389.736,140.732)">
            <g transform="matrix(-0.959176,-0.282808,-0.282808,0.959176,325.453,54.5425)">
                <path d="M-1.189,180.04L28.237,180.04L25.988,0.171L-3.437,0.172L-1.189,180.04Z" style="fill:rgb(0,183,76);"/>
            </g>
        </g>
        <g transform="matrix(2.69193,0,0,2.69193,389.736,140.732)">
            <g transform="matrix(-0.959176,-0.282808,-0.282808,0.959176,344.213,104.235)">
                <path d="M-6.045,153.611L23.381,153.611L22.174,0.873L-7.252,0.873L-6.045,153.611Z" style="fill:rgb(0,211,89);"/>
            </g>
        </g>
        <g transform="matrix(2.69193,0,0,2.69193,389.736,140.732)">
            <g transform="matrix(0.959164,0.282849,0.282849,-0.959164,120.032,270.509)">
                <path d="M35.575,-9.572L65.001,-9.572L66.302,246.413L36.877,246.413L35.575,-9.572Z" style="fill:rgb(0,104,41);fill-rule:nonzero;"/>
            </g>
        </g>
        <g transform="matrix(2.69193,0,0,2.69193,389.736,140.732)">
            <g transform="matrix(-0.959167,-0.28284,-0.28284,0.959167,384.87,83.7018)">
                <path d="M-9.343,133.276L20.084,133.276L19.239,1.348L-10.186,1.349L-9.343,133.276Z" style="fill:rgb(0,104,41);"/>
            </g>
        </g>
        <g transform="matrix(2.69193,0,0,2.69193,389.736,140.732)">
            <g transform="matrix(0.959167,0.28284,0.28284,-0.959167,354.173,196.339)">
                <path d="M13.437,-6.236L42.864,-6.236L43.196,93.076L13.77,93.076L13.437,-6.236Z" style="fill:rgb(0,211,89);fill-rule:nonzero;"/>
            </g>
        </g>
        <g transform="matrix(2.69193,0,0,2.69193,389.736,140.732)">
            <g transform="matrix(1,0,0,1,386.332,116.525)">
                <path d="M0,82.36L0,51.816L-28.439,51.816L-26.596,80.516L-28.439,82.36L-54.303,82.36L-54.303,1.843L-52.459,0L-28.439,1.843L-28.439,31.218L0,31.218L0,1.843L1.844,0L25.863,1.843L27.707,80.516L25.863,82.36L0,82.36Z" style="fill:rgb(128,128,128);fill-rule:nonzero;"/>
            </g>
        </g>
        <g transform="matrix(2.69193,0,0,2.69193,389.736,140.732)">
            <g transform="matrix(1,0,0,1,306.016,194.028)">
                <path d="M0,-70.803C6.629,-66.629 11.867,-60.885 12.025,-52.693L10.182,-50.849L-14.043,-50.849L-14.043,-51.318C-14.043,-53.658 -14.904,-55.607 -16.619,-57.169C-18.336,-58.729 -20.949,-59.51 -24.459,-59.51C-27.895,-59.51 -30.527,-59.002 -32.359,-57.989C-34.193,-56.973 -35.109,-55.724 -35.109,-54.243C-35.109,-52.136 -33.863,-50.575 -31.365,-49.562C-28.869,-48.547 -24.852,-47.494 -19.311,-46.402C-12.836,-45.074 -7.51,-43.69 -3.336,-42.248C0.836,-40.803 4.484,-38.444 7.607,-35.168C10.727,-31.89 12.326,-27.443 12.406,-21.826C12.406,-12.306 9.188,-5.246 2.75,-0.643C-3.688,3.961 -12.289,6.261 -23.055,6.261C-35.617,6.261 -45.391,4.155 -52.371,-0.058C-59.355,-4.271 -62.846,-11.72 -62.846,-22.411L-61.002,-24.255L-38.387,-22.411C-38.387,-18.353 -37.334,-15.641 -35.227,-14.277C-33.121,-12.911 -29.844,-12.229 -25.396,-12.229C-22.119,-12.229 -19.41,-12.58 -17.262,-13.283C-15.117,-13.985 -14.043,-15.428 -14.043,-17.613C-14.043,-19.562 -15.234,-21.025 -17.613,-22.002C-19.994,-22.976 -23.875,-24.01 -29.258,-25.102C-35.813,-26.507 -41.234,-27.97 -45.525,-29.491C-49.816,-31.012 -53.563,-33.529 -56.76,-37.04C-59.959,-40.551 -61.559,-45.308 -61.559,-51.318C-61.559,-60.133 -58.146,-66.629 -51.318,-70.803C-44.492,-74.976 -35.852,-77.064 -25.396,-77.064C-15.098,-77.064 -6.633,-74.976 0,-70.803" style="fill:rgb(128,128,128);fill-rule:nonzero;"/>
            </g>
        </g>
        <g transform="matrix(2.69193,0,0,2.69193,389.736,140.732)">
            <g transform="matrix(1,0,0,1,152.444,125.198)">
                <path d="M0,41.342L-21.888,41.342L-21.888,-18.636L-46.083,-20.48L-47.927,-18.636L-47.927,61.822L-6.238,61.822L-4.395,59.979L0,41.342Z" style="fill:rgb(128,128,128);fill-rule:nonzero;"/>
            </g>
        </g>
        <g transform="matrix(2.69193,0,0,2.69193,389.736,140.732)">
            <g transform="matrix(1,0,0,1,79.7549,181.871)">
                <path d="M0,-70.804C6.631,-66.629 9.971,-61.718 10.128,-53.526L12.025,-52.694L10.182,-50.85L-14.043,-50.85L-14.043,-51.319C-14.043,-53.659 -14.903,-55.608 -16.618,-57.17C-18.335,-58.73 -20.948,-59.511 -24.459,-59.511C-27.893,-59.511 -30.526,-59.002 -32.359,-57.99C-34.193,-56.974 -35.109,-55.725 -35.109,-54.244C-35.109,-52.137 -33.862,-50.576 -31.364,-49.563C-28.868,-48.548 -24.851,-47.495 -19.31,-46.403C-12.835,-45.075 -7.51,-43.691 -3.335,-42.248C0.837,-40.804 4.485,-38.445 7.607,-35.169C10.727,-31.891 12.327,-27.444 12.405,-21.827C12.405,-12.307 9.187,-5.247 2.75,-0.644C-3.687,3.96 -12.288,6.261 -23.055,6.261C-35.617,6.261 -45.39,4.154 -52.371,-0.059C-59.354,-4.272 -62.845,-11.721 -62.845,-22.412L-61.001,-24.256L-38.386,-22.412C-38.386,-18.354 -37.333,-15.642 -35.226,-14.278C-33.119,-12.913 -29.843,-12.23 -25.396,-12.23C-22.119,-12.23 -19.408,-12.582 -17.262,-13.284C-15.117,-13.985 -14.043,-15.429 -14.043,-17.614C-14.043,-19.563 -15.234,-21.026 -17.613,-22.003C-19.994,-22.977 -23.874,-24.01 -29.257,-25.103C-35.812,-26.508 -41.234,-27.971 -45.525,-29.492C-49.816,-31.013 -53.562,-33.53 -56.76,-37.041C-59.959,-40.552 -61.558,-45.31 -61.558,-51.319C-61.558,-60.134 -58.146,-66.629 -51.317,-70.804C-44.492,-74.976 -35.852,-77.065 -25.396,-77.065C-15.097,-77.065 -6.632,-74.976 0,-70.804" style="fill:rgb(128,128,128);fill-rule:nonzero;"/>
            </g>
        </g>
        <g transform="matrix(2.69193,0,0,2.69193,389.736,140.732)">
            <g transform="matrix(1,0,0,1,185.715,148.725)">
                <path d="M0,18.546L17.304,18.253L8.508,-7.756L8.036,-7.756L0,18.546ZM26.162,50.821L22.737,39.366L-6.31,39.366L-7.892,48.978L-9.735,50.821L-35.841,50.821L-7.953,-30.431L-6.109,-32.275L25.032,-30.431L55.055,48.978L53.211,50.821L26.162,50.821Z" style="fill:rgb(128,128,128);fill-rule:nonzero;"/>
            </g>
        </g>
        <g transform="matrix(2.69193,0,0,2.69193,389.736,140.732)">
            <g transform="matrix(1,0,0,1,388.176,116.525)">
                <path d="M0,80.516L0,49.971L-28.439,49.971L-28.439,80.516L-54.303,80.516L-54.303,0L-28.439,0L-28.439,29.374L0,29.374L0,0L25.863,0L25.863,80.516L0,80.516Z" style="fill:white;fill-rule:nonzero;"/>
            </g>
        </g>
        <g transform="matrix(2.69193,0,0,2.69193,389.736,140.732)">
            <g transform="matrix(1,0,0,1,307.86,192.185)">
                <path d="M0,-70.804C6.631,-66.629 10.023,-60.447 10.182,-52.254L10.182,-50.85L-14.043,-50.85L-14.043,-51.319C-14.043,-53.659 -14.904,-55.608 -16.619,-57.17C-18.336,-58.729 -20.949,-59.51 -24.459,-59.51C-27.895,-59.51 -30.527,-59.002 -32.359,-57.989C-34.193,-56.974 -35.109,-55.725 -35.109,-54.244C-35.109,-52.137 -33.861,-50.576 -31.365,-49.563C-28.869,-48.548 -24.852,-47.494 -19.311,-46.403C-12.836,-45.075 -7.51,-43.691 -3.336,-42.248C0.836,-40.804 4.484,-38.445 7.607,-35.168C10.727,-31.891 12.326,-27.444 12.406,-21.826C12.406,-12.306 9.188,-5.246 2.75,-0.644C-3.688,3.961 -12.289,6.261 -23.055,6.261C-35.617,6.261 -45.391,4.155 -52.371,-0.059C-59.355,-4.272 -62.846,-11.722 -62.846,-22.411L-38.387,-22.411C-38.387,-18.355 -37.334,-15.642 -35.227,-14.278C-33.119,-12.912 -29.842,-12.231 -25.396,-12.231C-22.119,-12.231 -19.41,-12.581 -17.262,-13.283C-15.117,-13.986 -14.043,-15.428 -14.043,-17.614C-14.043,-19.563 -15.234,-21.026 -17.613,-22.002C-19.994,-22.977 -23.875,-24.009 -29.258,-25.103C-35.813,-26.508 -41.234,-27.971 -45.525,-29.491C-49.816,-31.014 -53.563,-33.53 -56.76,-37.04C-59.959,-40.551 -61.559,-45.309 -61.559,-51.319C-61.559,-60.134 -58.146,-66.629 -51.318,-70.804C-44.492,-74.977 -35.852,-77.065 -25.396,-77.065C-15.098,-77.065 -6.633,-74.977 0,-70.804" style="fill:white;fill-rule:nonzero;"/>
            </g>
        </g>
        <g transform="matrix(2.69193,0,0,2.69193,389.736,140.732)">
            <g transform="matrix(1,0,0,1,154.288,125.197)">
                <path d="M0,39.5L-21.888,39.5L-21.888,-20.479L-47.928,-20.479L-47.928,59.979L-6.239,59.979L0,39.5Z" style="fill:white;fill-rule:nonzero;"/>
            </g>
        </g>
        <g transform="matrix(2.69193,0,0,2.69193,389.736,140.732)">
            <g transform="matrix(1,0,0,1,81.5986,180.026)">
                <path d="M0,-70.803C6.631,-66.629 10.025,-60.446 10.182,-52.254L10.182,-50.849L-14.043,-50.849L-14.043,-51.318C-14.043,-53.658 -14.903,-55.607 -16.618,-57.169C-18.335,-58.729 -20.948,-59.51 -24.459,-59.51C-27.893,-59.51 -30.526,-59.001 -32.358,-57.989C-34.193,-56.973 -35.109,-55.724 -35.109,-54.243C-35.109,-52.137 -33.861,-50.575 -31.364,-49.562C-28.868,-48.548 -24.851,-47.494 -19.31,-46.403C-12.835,-45.075 -7.51,-43.691 -3.335,-42.248C0.838,-40.803 4.486,-38.444 7.607,-35.167C10.727,-31.89 12.327,-27.443 12.405,-21.826C12.405,-12.306 9.187,-5.246 2.75,-0.644C-3.687,3.961 -12.288,6.261 -23.055,6.261C-35.617,6.261 -45.39,4.155 -52.371,-0.058C-59.354,-4.271 -62.845,-11.721 -62.845,-22.411L-38.386,-22.411C-38.386,-18.353 -37.333,-15.641 -35.226,-14.278C-33.119,-12.911 -29.843,-12.229 -25.396,-12.229C-22.119,-12.229 -19.408,-12.581 -17.262,-13.283C-15.117,-13.985 -14.043,-15.428 -14.043,-17.613C-14.043,-19.562 -15.234,-21.025 -17.613,-22.002C-19.994,-22.976 -23.874,-24.01 -29.257,-25.102C-35.811,-26.508 -41.235,-27.97 -45.524,-29.491C-49.816,-31.013 -53.562,-33.529 -56.759,-37.04C-59.959,-40.551 -61.558,-45.309 -61.558,-51.318C-61.558,-60.133 -58.146,-66.629 -51.317,-70.803C-44.492,-74.976 -35.852,-77.064 -25.396,-77.064C-15.097,-77.064 -6.632,-74.976 0,-70.803" style="fill:white;fill-rule:nonzero;"/>
            </g>
        </g>
        <g transform="matrix(2.69193,0,0,2.69193,389.736,140.732)">
            <g transform="matrix(1,0,0,1,187.559,148.726)">
                <path d="M0,16.702L17.305,16.408L8.509,-9.6L8.036,-9.6L0,16.702ZM26.162,48.977L22.737,37.522L-6.31,37.522L-9.735,48.977L-35.84,48.977L-7.953,-32.275L25.032,-32.275L53.211,48.977L26.162,48.977Z" style="fill:white;fill-rule:nonzero;"/>
            </g>
        </g>
        <g transform="matrix(2.69193,0,0,2.69193,389.736,140.732)">
            <g transform="matrix(-0.955051,-0.296442,-0.296442,0.955051,40.9882,88.7155)">
                <path d="M-16.152,95.504L13.274,95.504L14.481,2.449L-14.945,2.449L-16.152,95.504Z" style="fill:rgb(0,211,89);"/>
            </g>
        </g>
        <g transform="matrix(2.69193,0,0,2.69193,389.736,140.732)">
            <g transform="matrix(-0.959164,-0.282849,-0.282849,0.959164,243.498,11.6005)">
                <path d="M8.652,254.736L38.078,254.736L36.776,-1.249L7.351,-1.249L8.652,254.736Z" style="fill:rgb(0,211,89);"/>
            </g>
        </g>
    </g>
</svg>
