<?xml version="1.0" encoding="UTF-8" standalone="no"?>
<!DOCTYPE svg PUBLIC "-//W3C//DTD SVG 1.1//EN" "http://www.w3.org/Graphics/SVG/1.1/DTD/svg11.dtd">
<svg width="100%" height="100%" viewBox="0 0 351 351" version="1.1" xmlns="http://www.w3.org/2000/svg" xmlns:xlink="http://www.w3.org/1999/xlink" xml:space="preserve" xmlns:serif="http://www.serif.com/" style="fill-rule:evenodd;clip-rule:evenodd;stroke-linejoin:round;stroke-miterlimit:1.41421;">
    <g>
        <path d="M77.695,208.593C59.71,208.593 45.133,223.164 45.133,241.152C45.133,259.14 59.709,273.711 77.695,273.711C95.687,273.711 110.259,259.141 110.259,241.152C110.259,223.163 95.687,208.593 77.695,208.593ZM77.695,255.306C69.877,255.306 63.542,248.972 63.542,241.152C63.542,233.33 69.877,226.998 77.695,226.998C85.514,226.998 91.854,233.33 91.854,241.152C91.854,248.972 85.514,255.306 77.695,255.306Z" style="fill:white;fill-rule:nonzero;"/>
        <path d="M268.854,208.593C250.868,208.593 236.293,223.164 236.293,241.152C236.293,259.14 250.867,273.711 268.854,273.711C286.846,273.711 301.418,259.141 301.418,241.152C301.418,223.163 286.846,208.593 268.854,208.593ZM268.854,255.306C261.036,255.306 254.7,248.972 254.7,241.152C254.7,233.33 261.036,226.998 268.854,226.998C276.674,226.998 283.014,233.33 283.014,241.152C283.014,248.972 276.674,255.306 268.854,255.306Z" style="fill:white;fill-rule:nonzero;"/>
        <path d="M330.998,76.741L38.915,76.741C28.214,76.741 17.708,85.32 15.567,95.805L3.892,138.423C1.751,148.908 0,166.242 0,176.944L0,221.695C0,232.395 8.756,241.151 19.457,241.151L39.296,241.151C39.296,219.981 56.522,202.756 77.694,202.756C98.868,202.756 116.095,219.979 116.095,241.151L230.453,241.151C230.453,219.981 247.68,202.756 268.851,202.756C290.027,202.756 307.253,219.979 307.253,241.151L330.993,241.151C341.696,241.151 350.45,232.397 350.45,221.695L350.45,96.197C350.455,85.496 341.699,76.741 330.998,76.741ZM80.856,158.836L35.512,158.836L42.698,141.817C43.952,138.847 42.561,135.423 39.592,134.169C36.62,132.915 33.197,134.307 31.945,137.276L23.035,158.379C17.02,156.798 13.359,151.165 14.598,144.489L25.058,102.749C26.523,94.858 34.288,88.401 42.314,88.401L80.857,88.401L80.856,158.836ZM167.439,158.836L92.53,158.836L92.53,88.401L167.439,88.401L167.439,158.836ZM254.021,158.836L179.113,158.836L179.113,88.401L254.021,88.401L254.021,158.836ZM338.523,144.244C338.523,152.27 331.957,158.837 323.929,158.837L265.695,158.837L265.695,88.402L323.929,88.402C331.956,88.402 338.523,94.969 338.523,102.995L338.523,144.244Z" style="fill:white;fill-rule:nonzero;"/>
    </g>
</svg>
