<?xml version="1.0" encoding="UTF-8" standalone="no"?>
<!DOCTYPE svg PUBLIC "-//W3C//DTD SVG 1.1//EN" "http://www.w3.org/Graphics/SVG/1.1/DTD/svg11.dtd">
<svg width="100%" height="100%" viewBox="0 0 8000 4500" version="1.1" xmlns="http://www.w3.org/2000/svg" xmlns:xlink="http://www.w3.org/1999/xlink" xml:space="preserve" xmlns:serif="http://www.serif.com/" style="fill-rule:evenodd;clip-rule:evenodd;stroke-linejoin:round;stroke-miterlimit:1.41421;">
    <g id="Calque-1" serif:id="Calque 1" transform="matrix(4.16667,0,0,4.16667,0,0)">
        <g transform="matrix(-0.957174,-0.289512,-0.289512,0.957174,490.077,183.721)">
            <path d="M-35.703,484.679L70.558,484.679L71.692,5.28L-34.566,5.281L-35.703,484.679Z" style="fill:rgb(0,104,41);"/>
        </g>
        <g transform="matrix(-0.957174,-0.289514,-0.289514,0.957174,593.366,287.417)">
            <path d="M-9.781,644.946L96.479,644.946L95.402,1.447L-10.857,1.447L-9.781,644.946Z" style="fill:rgb(0,137,56);"/>
        </g>
        <g transform="matrix(-0.957168,-0.289531,-0.289531,0.957168,756.055,119.515)">
            <path d="M-9.297,653.969L96.964,653.969L96.743,1.375L-9.516,1.372L-9.297,653.969Z" style="fill:rgb(0,158,66);"/>
        </g>
        <g transform="matrix(-0.957165,-0.289543,-0.289543,0.957165,1071.45,182.837)">
            <path d="M-6.416,673.458L99.844,673.458L99.629,0.949L-6.628,0.945L-6.416,673.458Z" style="fill:rgb(0,104,41);"/>
        </g>
        <g transform="matrix(-0.957166,-0.28954,-0.28954,0.957166,827.975,239.109)">
            <path d="M-10.282,647.321L95.98,647.321L95.764,1.521L-10.497,1.517L-10.282,647.321Z" style="fill:rgb(0,183,76);"/>
        </g>
        <g transform="matrix(-0.957166,-0.28954,-0.28954,0.957166,1139.53,325.892)">
            <path d="M-4.648,679.705L101.614,679.705L100.554,0.687L-5.706,0.685L-4.648,679.705Z" style="fill:rgb(0,137,56);"/>
        </g>
        <g transform="matrix(-0.957166,-0.28954,-0.28954,0.957166,1303.48,152.489)">
            <path d="M-3.709,691.757L102.552,691.757L102.337,0.548L-3.923,0.546L-3.709,691.757Z" style="fill:rgb(0,158,66);"/>
        </g>
        <g transform="matrix(-0.957168,-0.289534,-0.289534,0.957168,1576.47,267.934)">
            <path d="M-26.35,538.67L79.91,538.67L79.688,3.898L-26.572,3.896L-26.35,538.67Z" style="fill:rgb(0,104,41);"/>
        </g>
        <g transform="matrix(-0.957169,-0.289529,-0.289529,0.957169,1378.3,279.833)">
            <path d="M-1.185,708.795L105.078,708.795L104.853,0.175L-1.408,0.173L-1.185,708.795Z" style="fill:rgb(0,183,76);"/>
        </g>
        <g transform="matrix(-0.95717,-0.289526,-0.289526,0.95717,1641.28,411.49)">
            <path d="M-29.215,528.575L77.049,528.575L78.19,4.321L-28.07,4.32L-29.215,528.575Z" style="fill:rgb(0,137,56);"/>
        </g>
        <g transform="matrix(1,0,0,1,918.791,707)">
            <path d="M0,-275L-29.992,-275L-53.184,-198L-52,-198L-25.2,-109L-79.8,-109L-79.793,-109.024C-79.906,-109.019 -80.017,-109.01 -80.132,-109.008L-101.306,-38.987C-101.271,-38.988 -101.238,-38.991 -101.203,-38.992L-101.2,-39L-4.8,-39L6.8,0L100.399,0L0,-275Z" style="fill:white;fill-rule:nonzero;"/>
        </g>
        <g transform="matrix(1,0,0,1,1526.79,431.796)">
            <path d="M0,275.2L0,170.801L-97.2,170.801L-97.2,275.2L-185.601,275.2L-185.601,0L-97.2,0L-97.2,100.4L0,100.4L0,0L88.399,0L88.399,275.2L0,275.2Z" style="fill:white;fill-rule:nonzero;"/>
        </g>
        <g transform="matrix(-0.957172,-0.28952,-0.28952,0.957172,1579.17,69.3663)">
            <path d="M24.047,879.344L130.309,879.344L130.077,-3.558L23.818,-3.558L24.047,879.344Z" style="fill:rgb(0,211,89);"/>
        </g>
        <g transform="matrix(1,0,0,1,1254.79,690.396)">
            <path d="M0,-242C22.662,-227.731 34.263,-206.6 34.8,-178.6L34.8,-173.799L-48,-173.799L-48,-175.4C-48,-183.4 -50.938,-190.062 -56.8,-195.4C-62.669,-200.731 -71.6,-203.4 -83.6,-203.4C-95.338,-203.4 -104.338,-201.663 -110.6,-198.2C-116.869,-194.731 -120,-190.462 -120,-185.4C-120,-178.2 -115.737,-172.862 -107.2,-169.4C-98.669,-165.931 -84.938,-162.331 -66,-158.6C-43.869,-154.062 -25.669,-149.331 -11.4,-144.4C2.862,-139.462 15.331,-131.4 26,-120.2C36.662,-109 42.131,-93.799 42.4,-74.6C42.4,-42.062 31.4,-17.931 9.4,-2.2C-12.6,13.538 -42,21.4 -78.8,21.4C-121.737,21.4 -155.138,14.2 -179,-0.2C-202.869,-14.6 -214.8,-40.062 -214.8,-76.6L-131.2,-76.6C-131.2,-62.731 -127.6,-53.462 -120.4,-48.8C-113.2,-44.131 -102,-41.8 -86.8,-41.8C-75.6,-41.8 -66.338,-43 -59,-45.4C-51.669,-47.8 -48,-52.731 -48,-60.2C-48,-66.863 -52.068,-71.863 -60.2,-75.2C-68.338,-78.531 -81.6,-82.062 -100,-85.799C-122.4,-90.6 -140.937,-95.6 -155.6,-100.799C-170.269,-106 -183.068,-114.6 -194,-126.6C-204.937,-138.6 -210.4,-154.862 -210.4,-175.4C-210.4,-205.531 -198.737,-227.731 -175.4,-242C-152.068,-256.262 -122.537,-263.4 -86.8,-263.4C-51.6,-263.4 -22.669,-256.262 0,-242" style="fill:white;fill-rule:nonzero;"/>
        </g>
        <g transform="matrix(-0.290153,0.95698,0.95698,0.290153,923.957,643.275)">
            <path d="M-175.911,-144.517L111.452,-144.517L107.068,-130.058L-180.166,-130.483L-175.911,-144.517Z" style="fill:white;fill-rule:nonzero;"/>
        </g>
        <g transform="matrix(1,0,0,1,716.591,788.971)">
            <path d="M0,-81.971L0.009,-82C-0.062,-81.995 -0.135,-81.992 -0.208,-81.99L-25.149,0.029L12.011,0.029L36.728,-81.971L0,-81.971Z" style="fill:white;fill-rule:nonzero;"/>
        </g>
        <g transform="matrix(-1,-0,-0,1,800.002,432)">
            <path d="M-107.615,-234L-71.157,-234L0,0L-36.696,0L-107.615,-234Z" style="fill:white;fill-rule:nonzero;"/>
        </g>
        <g transform="matrix(1,0,0,1,715.818,708)">
            <path d="M0,175L37.16,175L89.877,0L52.61,0L0,175Z" style="fill:white;fill-rule:nonzero;"/>
        </g>
        <g transform="matrix(-1,-0,-0,1,851.363,433)">
            <path d="M-73.009,-118L-35.5,-118L0,0L-37.436,0L-73.009,-118Z" style="fill:white;fill-rule:nonzero;"/>
        </g>
        <g transform="matrix(1,0,0,1,761.812,390)">
            <path d="M0,135L-74.813,135L-74.813,-70L-163.812,-70L-163.812,205L-21.324,205L0,135Z" style="fill:white;fill-rule:nonzero;"/>
        </g>
        <g transform="matrix(1,0,0,1,512.804,577.396)">
            <path d="M0,-242C22.663,-227.731 34.263,-206.6 34.8,-178.6L34.8,-173.8L-48,-173.8L-48,-175.4C-48,-183.4 -50.938,-190.062 -56.8,-195.4C-62.669,-200.731 -71.6,-203.4 -83.6,-203.4C-95.337,-203.4 -104.337,-201.663 -110.6,-198.2C-116.869,-194.731 -120,-190.462 -120,-185.4C-120,-178.2 -115.737,-172.862 -107.2,-169.4C-98.669,-165.931 -84.938,-162.331 -66,-158.6C-43.869,-154.062 -25.669,-149.331 -11.4,-144.4C2.862,-139.462 15.331,-131.4 26,-120.2C36.663,-109 42.131,-93.799 42.4,-74.6C42.4,-42.062 31.4,-17.931 9.4,-2.2C-12.6,13.538 -42,21.4 -78.8,21.4C-121.737,21.4 -155.138,14.2 -179,-0.2C-202.869,-14.6 -214.8,-40.062 -214.8,-76.6L-131.2,-76.6C-131.2,-62.731 -127.6,-53.462 -120.4,-48.8C-113.2,-44.131 -102,-41.8 -86.8,-41.8C-75.6,-41.8 -66.337,-43 -59,-45.4C-51.669,-47.8 -48,-52.731 -48,-60.2C-48,-66.863 -52.069,-71.863 -60.2,-75.2C-68.337,-78.531 -81.6,-82.062 -100,-85.799C-122.4,-90.6 -140.937,-95.6 -155.6,-100.799C-170.269,-106 -183.069,-114.6 -194,-126.6C-204.937,-138.6 -210.4,-154.862 -210.4,-175.4C-210.4,-205.531 -198.737,-227.731 -175.4,-242C-152.069,-256.262 -122.538,-263.4 -86.8,-263.4C-51.6,-263.4 -22.669,-256.262 0,-242" style="fill:white;fill-rule:nonzero;"/>
        </g>
        <g transform="matrix(-0.957166,-0.28954,-0.28954,0.957166,1027.2,101.151)">
            <path d="M34.441,949.665L140.703,949.665L140.491,-5.095L34.232,-5.099L34.441,949.665Z" style="fill:rgb(0,211,89);"/>
        </g>
    </g>
</svg>
