<?xml version="1.0" encoding="UTF-8" standalone="no"?>
<!DOCTYPE svg PUBLIC "-//W3C//DTD SVG 1.1//EN" "http://www.w3.org/Graphics/SVG/1.1/DTD/svg11.dtd">
<svg width="100%" height="100%" viewBox="0 0 471 471" version="1.1" xmlns="http://www.w3.org/2000/svg" xmlns:xlink="http://www.w3.org/1999/xlink" xml:space="preserve" xmlns:serif="http://www.serif.com/" style="fill-rule:evenodd;clip-rule:evenodd;stroke-linejoin:round;stroke-miterlimit:1.41421;">
    <g>
        <path d="M223.821,76.022C234.154,75.689 242.821,71.689 249.821,64.022C256.821,56.355 260.154,47.355 259.821,37.022C259.488,26.687 255.654,17.854 248.321,10.522C240.988,3.189 232.154,-0.311 221.821,0.022C211.488,0.355 202.821,4.355 195.821,12.022C188.821,19.689 185.321,28.689 185.321,39.022C185.321,49.355 189.154,58.189 196.821,65.522C204.488,72.855 213.488,76.355 223.821,76.022Z" style="fill:white;fill-rule:nonzero;"/>
        <path d="M350.321,202.522L295.321,172.522L250.321,100.522C241.654,89.855 230.988,84.522 218.321,84.522C209.654,84.522 201.321,88.189 193.321,95.522L125.321,164.522C123.321,167.189 121.988,170.189 121.321,173.522L112.321,250.522L112.321,252.522C112.321,257.188 113.988,261.188 117.321,264.522C120.654,267.854 124.654,269.522 129.321,269.522C133.988,269.522 137.821,267.854 140.821,264.522C143.821,261.188 145.654,257.522 146.321,253.522L153.321,187.522L177.321,163.522L155.321,347.522L116.321,434.523C114.988,438.523 114.321,442.181 114.321,445.525C114.321,452.847 116.821,459.025 121.821,464.025C126.821,469.025 132.988,471.189 140.321,470.525C150.321,470.525 157.654,465.847 162.321,456.525L204.321,362.523C204.321,361.853 204.654,360.688 205.321,359.023C205.989,357.353 206.656,355.853 207.321,354.523C207.988,353.188 208.321,351.853 208.321,350.523L213.321,305.522L256.321,453.525C260.988,465.525 269.321,471.191 281.321,470.525C287.988,470.525 293.821,468.025 298.821,463.025C303.821,458.025 306.321,451.847 306.321,444.525C306.321,443.847 306.154,443.025 305.821,442.025C305.488,441.025 305.321,440.189 305.321,439.523L245.321,234.522L252.321,167.522L269.321,194.522C270.654,196.522 272.321,198.189 274.321,199.522L333.321,232.522C337.321,233.855 339.988,234.522 341.321,234.522C345.988,234.522 349.988,232.689 353.321,229.022C356.654,225.354 358.321,221.188 358.321,216.522C358.321,210.522 355.654,205.855 350.321,202.522Z" style="fill:white;fill-rule:nonzero;stroke:white;stroke-width:1px;"/>
    </g>
</svg>
