<?xml version="1.0" encoding="UTF-8" standalone="no"?>
<!DOCTYPE svg PUBLIC "-//W3C//DTD SVG 1.1//EN" "http://www.w3.org/Graphics/SVG/1.1/DTD/svg11.dtd">
<svg width="100%" height="100%" viewBox="0 0 91 91" version="1.1" xmlns="http://www.w3.org/2000/svg" xmlns:xlink="http://www.w3.org/1999/xlink" xml:space="preserve" xmlns:serif="http://www.serif.com/" style="fill-rule:evenodd;clip-rule:evenodd;stroke-linejoin:round;stroke-miterlimit:1.41421;">
    <g transform="matrix(0.851047,-0.525089,0.525089,0.851047,-17.5403,31.6668)">
        <path d="M31.7,54.2L45.3,54.2L45.3,75.7L48.7,75.7L48.7,54.2L62.3,54.2C63.2,54.2 64,53.4 64,52.5L64,47.8C64,44.4 61.4,41.5 58.1,41.1L57.1,32.4C57,31.6 56.3,30.9 55.4,30.9L38.7,30.9C37.8,30.9 37.1,31.5 37,32.4L36,41C32.7,41.4 30.1,44.2 30.1,47.7L30.1,52.4C30,53.5 30.8,54.2 31.7,54.2Z" style="fill:rgb(0,211,88);fill-rule:nonzero;"/>
        <path d="M35.9,28.6L58.1,28.6C59,28.6 59.8,27.8 59.8,26.9L59.8,23.3C59.8,20.3 57.3,17.8 54.3,17.8L39.7,17.8C36.7,17.8 34.2,20.3 34.2,23.3L34.2,26.9C34.2,27.9 35,28.6 35.9,28.6Z" style="fill:rgb(0,211,88);fill-rule:nonzero;"/>
    </g>
</svg>
