<?xml version="1.0" encoding="UTF-8" standalone="no"?>
<!DOCTYPE svg PUBLIC "-//W3C//DTD SVG 1.1//EN" "http://www.w3.org/Graphics/SVG/1.1/DTD/svg11.dtd">
<svg width="100%" height="100%" viewBox="0 0 142 142" version="1.1" xmlns="http://www.w3.org/2000/svg" xmlns:xlink="http://www.w3.org/1999/xlink" xml:space="preserve" xmlns:serif="http://www.serif.com/" style="fill-rule:evenodd;clip-rule:evenodd;stroke-linejoin:round;stroke-miterlimit:1.41421;">
    <path id="Livello_22" d="M101.734,59.837C101.734,62.842 99.301,65.276 96.295,65.276C93.29,65.276 90.856,62.842 90.856,59.837C90.856,56.83 93.291,54.397 96.295,54.397C99.299,54.397 101.734,56.831 101.734,59.837M101.734,43.517L74.534,43.517L74.534,16.319L101.734,16.319L101.734,43.517ZM85.415,8.158C85.415,9.703 84.197,10.952 82.697,10.952L60.937,10.952L60.899,10.952C59.376,10.952 58.141,9.719 58.141,8.194C58.141,6.673 59.376,5.433 60.899,5.433C60.914,5.433 60.923,5.437 60.937,5.437L60.937,5.363L82.698,5.363C84.197,5.363 85.415,6.613 85.415,8.158M69.096,43.517L41.896,43.517L41.896,16.319L69.098,16.319L69.096,43.517ZM41.094,59.837C41.094,56.83 43.53,54.397 46.533,54.397C49.54,54.397 51.976,56.83 51.976,59.837C51.976,62.842 49.54,65.276 46.533,65.276C43.529,65.276 41.094,62.843 41.094,59.837M53.287,87.035L90.03,87.035L96.485,98.212L46.834,98.212L53.287,87.035ZM40.553,109.091L102.765,109.091L109.045,119.972L34.27,119.972L40.553,109.091ZM107.177,78.876L107.177,8.158C107.177,3.65 103.522,0 99.015,0L99.013,0L44.618,0L44.617,0C40.11,0 36.457,3.649 36.457,8.157L36.457,78.875C36.457,83.383 40.11,87.033 44.617,87.033L47.088,87.033L15.51,141.732L21.709,141.732L27.99,130.849L115.327,130.849L121.608,141.732L127.807,141.732L96.228,87.035L99.017,87.035C103.521,87.035 107.177,83.384 107.177,78.876M108.365,98.211L108.622,98.654L108.622,98.211L108.365,98.211Z" style="fill:white;fill-rule:nonzero;"/>
</svg>
