<?xml version="1.0" encoding="UTF-8" standalone="no"?>
<!DOCTYPE svg PUBLIC "-//W3C//DTD SVG 1.1//EN" "http://www.w3.org/Graphics/SVG/1.1/DTD/svg11.dtd">
<svg width="100%" height="100%" viewBox="0 0 217 217" version="1.1" xmlns="http://www.w3.org/2000/svg" xmlns:xlink="http://www.w3.org/1999/xlink" xml:space="preserve" xmlns:serif="http://www.serif.com/" style="fill-rule:evenodd;clip-rule:evenodd;stroke-linejoin:round;stroke-miterlimit:1.41421;">
    <path d="M196.069,155.925L181.654,27.173L203.277,27.173C206.039,27.173 208.277,24.935 208.277,22.173C208.277,19.411 206.039,17.173 203.277,17.173L148.848,17.173C146.086,17.173 143.848,19.411 143.848,22.173C143.848,24.935 146.086,27.173 148.848,27.173L171.592,27.173L182.046,120.552L150.136,172.697L60.381,172.697C58.596,160.245 50.121,141.077 26.478,133.924C23.832,133.126 21.043,134.619 20.244,137.262C19.445,139.906 20.939,142.697 23.582,143.496C43.292,149.458 48.706,164.71 50.195,172.697L43.028,172.697C40.761,163.075 32.11,155.89 21.806,155.89C9.782,155.891 0,165.673 0,177.697C0,189.721 9.782,199.504 21.807,199.504C32.111,199.504 40.762,192.319 43.029,182.697L152.92,182.697C152.925,182.697 152.93,182.698 152.935,182.698C153.238,182.698 153.537,182.661 153.834,182.607C153.901,182.595 153.967,182.584 154.033,182.569C154.308,182.507 154.577,182.426 154.838,182.319C154.89,182.298 154.938,182.271 154.99,182.248C155.213,182.148 155.429,182.03 155.636,181.897C155.685,181.865 155.735,181.837 155.783,181.804C156.015,181.644 156.234,181.464 156.439,181.263C156.477,181.226 156.51,181.185 156.547,181.147C156.708,180.979 156.857,180.797 156.996,180.603C157.041,180.54 157.088,180.479 157.13,180.414C157.154,180.377 157.182,180.345 157.205,180.308L183.861,136.747L186.206,157.692C178.482,161.051 173.065,168.752 173.065,177.698C173.065,189.722 182.847,199.505 194.872,199.505C206.897,199.505 216.679,189.723 216.679,177.698C216.677,166.075 207.538,156.55 196.069,155.925Z" style="fill:white;fill-rule:nonzero;"/>
</svg>
