<?xml version="1.0" encoding="UTF-8" standalone="no"?>
<!DOCTYPE svg PUBLIC "-//W3C//DTD SVG 1.1//EN" "http://www.w3.org/Graphics/SVG/1.1/DTD/svg11.dtd">
<svg width="100%" height="100%" viewBox="0 0 64 64" version="1.1" xmlns="http://www.w3.org/2000/svg" xmlns:xlink="http://www.w3.org/1999/xlink" xml:space="preserve" xmlns:serif="http://www.serif.com/" style="fill-rule:evenodd;clip-rule:evenodd;stroke-linejoin:round;stroke-miterlimit:1.41421;">
    <path d="M52.52,26.064C50.908,26.064 49.371,26.4 47.976,27.003L43.179,15.89C43.057,15.607 42.842,15.406 42.599,15.253C42.387,15.106 42.14,15.001 41.861,15.001L32.964,15.001C32.221,15.001 31.617,15.604 31.617,16.348C31.617,17.09 32.221,17.693 32.964,17.693L39.787,17.693C40.118,17.711 40.809,17.832 41.106,18.518L41.646,19.765L41.747,20C41.846,20.291 41.886,20.749 41.143,20.749L22.428,20.749C21.571,20.749 21.166,20.298 20.994,20.017L20.884,19.796L20.884,19.793L20.332,18.701L20.332,18.7L20.326,18.689L20.225,18.489L20.213,18.487L19.988,18.082C19.939,17.954 19.957,17.745 20.638,17.745L23.239,17.745C23.239,17.745 24.767,17.872 24.809,16.471C24.83,15.749 24.322,15.007 23.643,15.007C22.963,15.007 14.494,15.007 14.494,15.007C14.494,15.007 13.03,14.837 12.945,16.376C12.945,17.064 13.516,17.745 14.324,17.745C14.619,17.745 15.024,17.742 15.415,17.738C15.927,17.752 16.804,17.859 17.092,18.417L17.209,18.636C17.496,19.2 17.96,20.109 18.522,21.21C18.562,21.288 18.605,21.376 18.648,21.456C18.755,21.741 18.836,22.263 18.44,22.939L16.037,27.021C14.64,26.415 13.1,26.074 11.478,26.074C5.149,26.074 0.015,31.205 0.015,37.536C0.015,43.867 5.15,48.999 11.479,48.999C17.044,48.999 21.68,45.031 22.722,39.772L28.489,40.25C28.724,40.27 28.942,40.21 29.143,40.123C29.397,40.08 29.65,39.995 29.856,39.812L43.832,27.536C44.024,27.372 44.706,26.857 44.983,27.497L45.429,28.532C42.77,30.631 41.057,33.875 41.057,37.527C41.057,43.856 46.188,48.988 52.519,48.988C58.848,48.988 63.983,43.856 63.983,37.527C63.983,31.196 58.849,26.064 52.52,26.064ZM11.479,46.756C6.586,46.756 2.618,42.788 2.618,37.895C2.618,33.002 6.587,29.036 11.479,29.036C12.552,29.036 13.577,29.237 14.53,29.587L10.352,36.685C10.233,36.887 10.185,37.103 10.169,37.318C10.166,37.34 10.154,37.354 10.153,37.372C10.146,37.463 10.173,37.544 10.183,37.63C10.191,37.684 10.187,37.735 10.201,37.788C10.333,38.347 10.793,38.788 11.394,38.838L20.176,39.565C19.397,43.655 15.802,46.756 11.479,46.756ZM15.169,36.423C15.166,36.421 15.166,36.421 15.163,36.421C13.837,36.312 14.681,34.8 14.727,34.717L16.951,30.937C18.752,32.355 19.988,34.452 20.271,36.845L15.169,36.423ZM25.607,37.285L22.919,37.062C22.775,33.541 21.049,30.436 18.426,28.433L19.511,26.591C20.449,24.998 21.267,26.592 21.267,26.592C23.039,30.072 24.917,33.761 26.012,35.923C26.012,35.924 26.746,37.379 25.607,37.285ZM43.249,24.273L30.78,35.225L30.78,35.227C29.316,36.512 28.603,35.123 28.592,35.1L23.295,24.583C22.824,23.647 23.705,23.521 24.1,23.51L42.026,23.51C42.026,23.51 43.258,23.498 43.38,23.777L43.38,23.779C43.458,23.961 43.473,24.077 43.249,24.273ZM52.52,46.745C47.629,46.745 43.66,42.777 43.66,37.887C43.66,35.262 44.806,32.911 46.622,31.288L48.854,36.462C49.275,37.439 49.725,37.523 49.832,37.527L51.529,37.527C52.429,37.527 52.121,36.614 52.002,36.328L49.14,29.697C50.183,29.267 51.324,29.025 52.521,29.025C57.412,29.025 61.382,32.992 61.382,37.886C61.381,42.777 57.41,46.745 52.52,46.745Z" style="fill:white;fill-rule:nonzero;"/>
</svg>
